<?xml version="1.0" standalone="no"?>
<!DOCTYPE svg PUBLIC "-//W3C//DTD SVG 20010904//EN"
 "http://www.w3.org/TR/2001/REC-SVG-20010904/DTD/svg10.dtd">
<svg version="1.0" xmlns="http://www.w3.org/2000/svg"
 width="251.000000pt" height="251.000000pt" viewBox="0 0 251.000000 251.000000"
 preserveAspectRatio="xMidYMid meet">
<g transform="translate(0.000000,251.000000) scale(0.100000,-0.100000)"
fill="#000000" stroke="none">
<path d="M848 2353 l-158 -158 0 -118 0 -117 -153 0 -152 0 -180 -180 -180
-180 333 0 332 0 0 -702 0 -703 160 160 160 160 0 545 0 545 245 -245 245
-245 0 -560 0 -560 160 160 160 160 0 415 0 415 327 327 328 328 -270 0 -270
0 -137 -137 -138 -138 -130 130 -130 130 87 87 88 88 -283 0 -282 0 -2 275 -3
275 -157 -157z"/>
</g>
</svg>
